<svg xmlns="http://www.w3.org/2000/svg" viewBox="0 -729 8111 758">
<g transform="scale(1,-1)">
<g fill="#FFFFFF"><path transform="translate(0,0)" d="M226 673C199 699 173 709 131 709C68 709 40 686 40 634V66C40 17 68 -9 123 -9C178 -9 207 17 207 66V461L676 18C697 -1 719 -9 751 -9C807 -9 835 14 835 66V634C835 683 807 709 751 709C697 709 668 683 668 634V256Z"/><path transform="translate(895,0)" d="M207 634C207 683 178 709 124 709C68 709 40 683 40 634V66C40 17 68 -9 123 -9C178 -9 207 17 207 66Z"/><path transform="translate(1162,0)" d="M215 676C185 703 157 709 127 709C68 709 40 685 40 634V66C40 17 68 -9 123 -9C178 -9 207 17 207 66V463L409 287C425 273 449 264 469 264C489 264 513 273 529 287L731 463V66C731 17 760 -9 815 -9C870 -9 898 17 898 66V634C898 685 870 709 811 709C781 709 753 703 723 676L469 452Z"/><path transform="translate(2120,0)" d="M207 634C207 683 178 709 124 709C68 709 40 683 40 634V66C40 17 68 -9 123 -9C178 -9 207 17 207 66Z"/><path transform="translate(2387,0)" d="M548 674C530 701 510 709 471 709C432 709 412 701 393 674L20 116C9 101 4 86 4 68C4 22 41 -9 91 -9C117 -9 138 0 156 26L471 496L695 162H412C364 162 339 135 339 81C339 27 364 0 412 0H845C895 0 932 30 932 77C932 94 927 110 916 125Z"/></g>
<g fill="#FF4D8D"><path transform="translate(3652,0)" d="M398 700C161 700 30 579 30 350C30 121 161 0 398 0H765C812 0 839 32 839 76V354C839 405 815 432 768 432H420C373 432 349 405 349 354C349 302 373 276 420 276H676V162H405C264 162 197 228 197 350C197 472 264 538 405 538H762C811 538 836 565 836 619C836 673 811 700 762 700Z"/><path transform="translate(4551,0)" d="M548 674C530 701 510 709 471 709C432 709 412 701 393 674L20 116C9 101 4 86 4 68C4 22 41 -9 91 -9C117 -9 138 0 156 26L471 496L695 162H412C364 162 339 135 339 81C339 27 364 0 412 0H845C895 0 932 30 932 77C932 94 927 110 916 125Z"/><path transform="translate(5513,0)" d="M215 676C185 703 157 709 127 709C68 709 40 685 40 634V66C40 17 68 -9 123 -9C178 -9 207 17 207 66V463L409 287C425 273 449 264 469 264C489 264 513 273 529 287L731 463V66C731 17 760 -9 815 -9C870 -9 898 17 898 66V634C898 685 870 709 811 709C781 709 753 703 723 676L469 452Z"/><path transform="translate(6471,0)" d="M114 700C65 700 40 673 40 619V81C40 27 65 0 114 0H693C742 0 767 27 767 81C767 135 742 162 693 162H205V276H686C733 276 757 303 757 354C757 406 733 433 686 433H205V538H691C740 538 765 565 765 619C765 673 740 700 691 700Z"/><path transform="translate(7282,0)" d="M247 700C105 700 28 629 28 491C28 353 105 284 247 284H558C599 284 620 263 620 222C620 182 599 162 558 162H101C52 162 27 135 27 81C27 27 52 0 101 0H568C710 0 787 70 787 208C787 346 710 426 567 426H257C215 426 195 445 195 482C195 519 215 538 257 538H690C739 538 764 565 764 619C764 673 739 700 690 700Z"/></g>
</g>
</svg>